<svg xmlns="http://www.w3.org/2000/svg" xmlns:xlink="http://www.w3.org/1999/xlink" width="500" zoomAndPan="magnify" viewBox="0 0 375 374.999991" height="500" preserveAspectRatio="xMidYMid meet" version="1.0"><defs><clipPath id="73a92b34a9"><path d="M 37.582031 37.5 L 337.582031 37.5 L 337.582031 337.5 L 37.582031 337.5 Z M 37.582031 37.5 " clip-rule="nonzero"/></clipPath></defs><g clip-path="url(#73a92b34a9)"><path fill="#ffffff" d="M 187.539062 37.5 C 104.855469 37.5 37.582031 104.773438 37.582031 187.457031 C 37.582031 270.144531 104.855469 337.417969 187.539062 337.417969 C 270.226562 337.417969 337.5 270.144531 337.5 187.457031 C 337.5 104.773438 270.226562 37.5 187.539062 37.5 Z M 187.539062 76.621094 C 212.707031 76.621094 233.179688 97.09375 233.179688 122.257812 C 233.179688 147.425781 212.707031 167.898438 187.539062 167.898438 C 162.375 167.898438 141.902344 147.425781 141.902344 122.257812 C 141.902344 97.09375 162.375 76.621094 187.539062 76.621094 Z M 265.78125 272.21875 L 109.300781 272.21875 C 105.703125 272.21875 102.78125 269.296875 102.78125 265.699219 C 102.78125 218.964844 140.804688 180.9375 187.539062 180.9375 C 234.277344 180.9375 272.300781 218.964844 272.300781 265.699219 C 272.300781 269.296875 269.378906 272.21875 265.78125 272.21875 Z M 265.78125 272.21875 " fill-opacity="1" fill-rule="nonzero"/></g></svg>