<svg xmlns="http://www.w3.org/2000/svg" xmlns:xlink="http://www.w3.org/1999/xlink" width="1500" zoomAndPan="magnify" viewBox="0 0 1125 374.999991" height="500" preserveAspectRatio="xMidYMid meet" version="1.0"><defs><g/></defs><g fill="#ffffff" fill-opacity="1"><g transform="translate(-14.149263, 303.76876)"><g><path d="M 159.683594 0 L 208.734375 0 L 140.707031 -108.84375 C 165.054688 -115.644531 195.84375 -133.1875 195.84375 -177.585938 C 195.84375 -250.625 112.0625 -250.625 112.0625 -250.625 L 28.644531 -250.625 L 28.644531 -208.734375 L 68.382812 -146.078125 L 28.644531 -146.078125 L 28.644531 0 L 70.53125 0 L 70.53125 -104.546875 L 94.519531 -104.546875 Z M 117.433594 -146.4375 L 78.410156 -208.734375 L 112.0625 -208.734375 C 112.0625 -208.734375 153.953125 -208.734375 153.953125 -177.585938 C 153.953125 -152.878906 128.535156 -147.507812 117.433594 -146.4375 Z M 117.433594 -146.4375 "/></g></g></g><g fill="#ffffff" fill-opacity="1"><g transform="translate(190.645734, 303.76876)"><g><path d="M 102.398438 -210.164062 L 49.765625 -112.78125 L 84.496094 -112.78125 C 110.273438 -112.78125 121.015625 -93.804688 121.015625 -75.1875 C 121.015625 -51.558594 108.84375 -39.382812 86.285156 -39.382812 C 69.101562 -39.382812 51.558594 -51.199219 51.558594 -70.890625 L 10.382812 -70.890625 C 10.382812 -26.136719 45.828125 2.148438 86.285156 2.148438 C 126.386719 2.148438 163.261719 -18.976562 163.261719 -73.398438 C 163.261719 -113.855469 142.496094 -138.558594 109.917969 -146.078125 L 166.128906 -250.625 L 18.617188 -250.625 L 18.617188 -210.164062 Z M 102.398438 -210.164062 "/></g></g></g><g fill="#ffffff" fill-opacity="1"><g transform="translate(352.834758, 303.76876)"><g><path d="M 70.175781 -41.890625 L 70.175781 -250.625 L 28.285156 -250.625 L 28.285156 0 L 162.90625 0 L 162.90625 -41.890625 Z M 70.175781 -41.890625 "/></g></g></g><g fill="#ffffff" fill-opacity="1"><g transform="translate(517.888076, 303.76876)"><g><path d="M 113.496094 -68.027344 C 164.695312 -68.027344 206.585938 -109.917969 206.585938 -161.113281 C 206.585938 -212.3125 164.695312 -254.203125 113.496094 -254.203125 C 62.296875 -254.203125 20.40625 -212.3125 20.40625 -161.113281 C 20.40625 -109.917969 62.296875 -68.027344 113.496094 -68.027344 Z M 113.496094 -212.671875 C 142.140625 -212.671875 165.054688 -189.757812 165.054688 -161.113281 C 165.054688 -132.472656 142.140625 -109.558594 113.496094 -109.558594 C 84.855469 -109.558594 61.941406 -132.472656 61.941406 -161.113281 C 61.941406 -189.757812 84.855469 -212.671875 113.496094 -212.671875 Z M 195.128906 0 L 195.128906 -41.53125 L 29.714844 -41.53125 L 29.714844 0 Z M 195.128906 0 "/></g></g></g><g fill="#ffffff" fill-opacity="1"><g transform="translate(731.991966, 303.76876)"><g><path d="M 156.460938 0 L 156.460938 -250.625 L 114.929688 -250.625 L 11.457031 -115.285156 L 11.457031 -75.902344 L 114.929688 -75.902344 L 114.929688 0 Z M 55.496094 -112.421875 L 114.929688 -187.25 L 114.929688 -112.421875 Z M 55.496094 -112.421875 "/></g></g></g><g fill="#ffffff" fill-opacity="1"><g transform="translate(902.057767, 303.76876)"><g><path d="M 70.175781 -250.625 L 28.285156 -250.625 L 28.285156 0 L 70.175781 0 C 132.472656 0 216.609375 -18.257812 216.609375 -125.3125 C 216.609375 -236.660156 131.039062 -250.625 70.175781 -250.625 Z M 70.175781 -40.816406 L 70.175781 -209.808594 C 70.175781 -209.808594 174.363281 -225.5625 174.363281 -125.3125 C 174.363281 -26.496094 70.175781 -40.816406 70.175781 -40.816406 Z M 70.175781 -40.816406 "/></g></g></g></svg>