<svg xmlns="http://www.w3.org/2000/svg" xmlns:xlink="http://www.w3.org/1999/xlink" width="400" zoomAndPan="magnify" viewBox="0 0 300 187.499995" height="250" preserveAspectRatio="xMidYMid meet" version="1.0"><defs><g/></defs><g fill="#ffffff" fill-opacity="1"><g transform="translate(-9.672037, 145.113022)"><g><path d="M 77.03125 0 L 57.375 -28.390625 L 35.671875 -28.390625 L 35.671875 0 L 12.078125 0 L 12.078125 -101.921875 L 56.203125 -101.921875 C 65.234375 -101.921875 73.070312 -100.414062 79.71875 -97.40625 C 86.375 -94.40625 91.492188 -90.132812 95.078125 -84.59375 C 98.671875 -79.0625 100.46875 -72.507812 100.46875 -64.9375 C 100.46875 -57.363281 98.644531 -50.832031 95 -45.34375 C 91.363281 -39.863281 86.195312 -35.671875 79.5 -32.765625 L 102.359375 0 Z M 76.59375 -64.9375 C 76.59375 -70.664062 74.75 -75.054688 71.0625 -78.109375 C 67.375 -81.171875 61.984375 -82.703125 54.890625 -82.703125 L 35.671875 -82.703125 L 35.671875 -47.171875 L 54.890625 -47.171875 C 61.984375 -47.171875 67.375 -48.722656 71.0625 -51.828125 C 74.75 -54.941406 76.59375 -59.3125 76.59375 -64.9375 Z M 76.59375 -64.9375 "/></g></g></g><g fill="#ffffff" fill-opacity="1"><g transform="translate(97.346772, 145.113022)"><g><path d="M 91 -18.921875 L 91 0 L 12.078125 0 L 12.078125 -101.921875 L 89.109375 -101.921875 L 89.109375 -83 L 35.53125 -83 L 35.53125 -60.859375 L 82.859375 -60.859375 L 82.859375 -42.515625 L 35.53125 -42.515625 L 35.53125 -18.921875 Z M 91 -18.921875 "/></g></g></g><g fill="#ffffff" fill-opacity="1"><g transform="translate(195.046925, 145.113022)"><g><path d="M 76.296875 0 L 51.6875 -35.390625 L 27.515625 0 L 0.4375 0 L 38.15625 -51.84375 L 2.328125 -101.921875 L 29.125 -101.921875 L 52.5625 -68.875 L 75.578125 -101.921875 L 101.046875 -101.921875 L 65.53125 -52.703125 L 103.53125 0 Z M 76.296875 0 "/></g></g></g></svg>