<svg xmlns="http://www.w3.org/2000/svg" xmlns:xlink="http://www.w3.org/1999/xlink" width="400" zoomAndPan="magnify" viewBox="0 0 300 187.499995" height="250" preserveAspectRatio="xMidYMid meet" version="1.0"><defs><g/></defs><g fill="#ffffff" fill-opacity="1"><g transform="translate(32.986044, 98.873114)"><g><path d="M 57.453125 0 L 42.5625 -21.34375 C 41.9375 -21.269531 41.003906 -21.234375 39.765625 -21.234375 L 23.3125 -21.234375 L 23.3125 0 L 9.78125 0 L 9.78125 -72.859375 L 39.765625 -72.859375 C 46.078125 -72.859375 51.570312 -71.816406 56.25 -69.734375 C 60.9375 -67.648438 64.523438 -64.664062 67.015625 -60.78125 C 69.515625 -56.894531 70.765625 -52.28125 70.765625 -46.9375 C 70.765625 -41.457031 69.429688 -36.738281 66.765625 -32.78125 C 64.097656 -28.832031 60.265625 -25.882812 55.265625 -23.9375 L 72.015625 0 Z M 57.140625 -46.9375 C 57.140625 -51.582031 55.613281 -55.15625 52.5625 -57.65625 C 49.507812 -60.15625 45.035156 -61.40625 39.140625 -61.40625 L 23.3125 -61.40625 L 23.3125 -32.375 L 39.140625 -32.375 C 45.035156 -32.375 49.507812 -33.640625 52.5625 -36.171875 C 55.613281 -38.703125 57.140625 -42.289062 57.140625 -46.9375 Z M 57.140625 -46.9375 "/></g></g></g><g fill="#ffffff" fill-opacity="1"><g transform="translate(114.270195, 98.873114)"><g><path d="M 64.421875 -11.34375 L 64.421875 0 L 9.78125 0 L 9.78125 -72.859375 L 62.96875 -72.859375 L 62.96875 -61.515625 L 23.3125 -61.515625 L 23.3125 -42.5625 L 58.484375 -42.5625 L 58.484375 -31.4375 L 23.3125 -31.4375 L 23.3125 -11.34375 Z M 64.421875 -11.34375 "/></g></g></g><g fill="#ffffff" fill-opacity="1"><g transform="translate(189.205645, 98.873114)"><g><path d="M 55.6875 0 L 35.90625 -27.6875 L 16.34375 0 L 0.9375 0 L 28 -37.15625 L 2.390625 -72.859375 L 17.6875 -72.859375 L 36.328125 -46.9375 L 54.75 -72.859375 L 69.421875 -72.859375 L 43.921875 -37.671875 L 71.296875 0 Z M 55.6875 0 "/></g></g></g><g fill="#ffe443" fill-opacity="1"><g transform="translate(32.927512, 158.937765)"><g><path d="M 45.78125 -29.625 C 45.78125 -25.644531 44.722656 -22.21875 42.609375 -19.34375 C 40.492188 -16.46875 37.53125 -14.367188 33.71875 -13.046875 L 41.109375 0 L 28.265625 0 L 21.796875 -11.546875 L 15.59375 -11.546875 L 13.296875 0 L 1 0 L 9.6875 -43.484375 L 28.265625 -43.484375 C 33.804688 -43.484375 38.109375 -42.257812 41.171875 -39.8125 C 44.242188 -37.363281 45.78125 -33.96875 45.78125 -29.625 Z M 33.359375 -28.453125 C 33.359375 -30.222656 32.753906 -31.550781 31.546875 -32.4375 C 30.347656 -33.332031 28.671875 -33.78125 26.515625 -33.78125 L 20.0625 -33.78125 L 17.453125 -21.0625 L 24.78125 -21.0625 C 27.507812 -21.0625 29.617188 -21.703125 31.109375 -22.984375 C 32.609375 -24.265625 33.359375 -26.085938 33.359375 -28.453125 Z M 33.359375 -28.453125 "/></g></g></g><g fill="#ffe443" fill-opacity="1"><g transform="translate(81.999403, 158.937765)"><g><path d="M 19.875 -33.96875 L 18.453125 -26.640625 L 37.765625 -26.640625 L 35.96875 -17.453125 L 16.578125 -17.453125 L 15.03125 -9.5 L 37.828125 -9.5 L 35.84375 0 L 1 0 L 9.6875 -43.484375 L 43.71875 -43.484375 L 41.796875 -33.96875 Z M 19.875 -33.96875 "/></g></g></g><g fill="#ffe443" fill-opacity="1"><g transform="translate(126.847388, 158.937765)"><g><path d="M 16.953125 -33.71875 L 3.609375 -33.71875 L 5.59375 -43.484375 L 44.53125 -43.484375 L 42.546875 -33.71875 L 29.25 -33.71875 L 22.484375 0 L 10.1875 0 Z M 16.953125 -33.71875 "/></g></g></g><g fill="#ffe443" fill-opacity="1"><g transform="translate(169.397074, 158.937765)"><g><path d="M 45.78125 -29.625 C 45.78125 -25.644531 44.722656 -22.21875 42.609375 -19.34375 C 40.492188 -16.46875 37.53125 -14.367188 33.71875 -13.046875 L 41.109375 0 L 28.265625 0 L 21.796875 -11.546875 L 15.59375 -11.546875 L 13.296875 0 L 1 0 L 9.6875 -43.484375 L 28.265625 -43.484375 C 33.804688 -43.484375 38.109375 -42.257812 41.171875 -39.8125 C 44.242188 -37.363281 45.78125 -33.96875 45.78125 -29.625 Z M 33.359375 -28.453125 C 33.359375 -30.222656 32.753906 -31.550781 31.546875 -32.4375 C 30.347656 -33.332031 28.671875 -33.78125 26.515625 -33.78125 L 20.0625 -33.78125 L 17.453125 -21.0625 L 24.78125 -21.0625 C 27.507812 -21.0625 29.617188 -21.703125 31.109375 -22.984375 C 32.609375 -24.265625 33.359375 -26.085938 33.359375 -28.453125 Z M 33.359375 -28.453125 "/></g></g></g><g fill="#ffe443" fill-opacity="1"><g transform="translate(218.468961, 158.937765)"><g><path d="M 24.46875 0.875 C 20.082031 0.875 16.265625 0.0664062 13.015625 -1.546875 C 9.765625 -3.160156 7.257812 -5.414062 5.5 -8.3125 C 3.738281 -11.21875 2.859375 -14.535156 2.859375 -18.265625 C 2.859375 -23.234375 4.003906 -27.703125 6.296875 -31.671875 C 8.597656 -35.648438 11.804688 -38.753906 15.921875 -40.984375 C 20.046875 -43.222656 24.738281 -44.34375 30 -44.34375 C 34.382812 -44.34375 38.203125 -43.535156 41.453125 -41.921875 C 44.703125 -40.304688 47.207031 -38.050781 48.96875 -35.15625 C 50.726562 -32.257812 51.609375 -28.945312 51.609375 -25.21875 C 51.609375 -20.25 50.457031 -15.773438 48.15625 -11.796875 C 45.863281 -7.828125 42.65625 -4.722656 38.53125 -2.484375 C 34.414062 -0.242188 29.726562 0.875 24.46875 0.875 Z M 25.53125 -9.3125 C 28.257812 -9.3125 30.660156 -9.992188 32.734375 -11.359375 C 34.804688 -12.734375 36.398438 -14.566406 37.515625 -16.859375 C 38.628906 -19.160156 39.1875 -21.695312 39.1875 -24.46875 C 39.1875 -27.40625 38.285156 -29.753906 36.484375 -31.515625 C 34.679688 -33.273438 32.164062 -34.15625 28.9375 -34.15625 C 26.207031 -34.15625 23.804688 -33.472656 21.734375 -32.109375 C 19.671875 -30.742188 18.078125 -28.910156 16.953125 -26.609375 C 15.835938 -24.316406 15.28125 -21.78125 15.28125 -19 C 15.28125 -16.0625 16.179688 -13.710938 17.984375 -11.953125 C 19.785156 -10.191406 22.300781 -9.3125 25.53125 -9.3125 Z M 25.53125 -9.3125 "/></g></g></g></svg>